<svg xmlns="http://www.w3.org/2000/svg" version="1.1" xmlns:xlink="http://www.w3.org/1999/xlink" xmlns:svgjs="http://svgjs.dev/svgjs" width="1500" height="280" viewBox="0 0 1500 280"><g transform="matrix(1,0,0,1,-0.9090909090909918,-0.855883493271449)"><svg viewBox="0 0 396 74" data-background-color="#010536" preserveAspectRatio="xMidYMid meet" height="280" width="1500" xmlns="http://www.w3.org/2000/svg" xmlns:xlink="http://www.w3.org/1999/xlink"><g id="tight-bounds" transform="matrix(1,0,0,1,0.2400000000000091,0.22619778036460048)"><svg viewBox="0 0 395.52 73.54760443927077" height="73.54760443927077" width="395.52"><g><svg viewBox="0 0 399.7107155852251 74.326875" height="73.54760443927077" width="395.52"><g><svg viewBox="0 0 399.7107155852251 74.326875" height="74.326875" width="399.7107155852251"><g id="textblocktransform"><svg viewBox="0 0 399.7107155852251 74.326875" height="74.326875" width="399.7107155852251" id="textblock"><g><svg viewBox="0 0 399.7107155852251 74.326875" height="74.326875" width="399.7107155852251"><g><svg><g></g><g></g></svg></g><g><svg><g></g><g><svg></svg></g></svg></g><g id="text-0"><svg viewBox="0 0 399.7107155852251 74.326875" height="74.326875" width="399.7107155852251"><g><svg xmlns="http://www.w3.org/2000/svg" xmlns:xlink="http://www.w3.org/1999/xlink" version="1.1" x="0" y="0" viewBox="6.9255540508065065 5.2 86.14889189838698 89.82659863237109" enable-background="new 0 0 100 100" xml:space="preserve" height="74.326875" width="71.2837624602251" class="icon-cg-0" data-fill-palette-color="accent" id="cg-0"><g fill="#ffa500" data-fill-palette-color="accent"><path d="M55.2 10.3c0 2.6-1.9 4.7-4.3 5.1v20.9l-0.6 0-0.2 0-0.2 0-0.6 0-0.1 0V15.5c-2.5-0.4-4.3-2.6-4.3-5.1 0-2.9 2.3-5.2 5.2-5.2S55.2 7.5 55.2 10.3z" fill="#ffa500" data-fill-palette-color="accent"></path><path d="M50.4 43.5c0.2 0.1 0.4 0.1 0.5 0.2v7.4c-0.2 0.2-0.5 0.3-0.8 0.4-0.3-0.1-0.7-0.2-0.9-0.4 0 0 0 0 0 0v-7.3c0 0 0 0 0 0 0.1-0.1 0.3-0.2 0.6-0.2l0.1 0c0.1 0 0.2-0.1 0.3-0.1C50.2 43.4 50.3 43.5 50.4 43.5L50.4 43.5z" fill="#ffa500" data-fill-palette-color="accent"></path><path d="M50.9 59v5.8c-0.1 0.1-0.2 0.2-0.3 0.3-0.1 0.1-0.3 0.2-0.4 0.2l0 0 0 0c0 0 0 0-0.1 0 0 0 0 0-0.1 0l0 0 0 0c-0.1 0-0.3-0.2-0.4-0.2-0.1-0.1-0.3-0.3-0.4-0.4v-5.6c0 0 0.1-0.1 0.1-0.1 0.1-0.1 0.3-0.2 0.4-0.2 0.1 0 0.2-0.1 0.2-0.1h0l0 0c0 0 0.1 0 0.1 0 0 0 0.1 0 0.1 0l0 0c0 0 0 0 0.1 0 0 0 0.1 0 0.1 0 0.1 0 0.1 0 0.2 0.1C50.6 58.8 50.7 58.8 50.9 59L50.9 59z" fill="#ffa500" data-fill-palette-color="accent"></path><path d="M50.9 73.1v4.5c-0.1 0.1-0.1 0.2-0.2 0.2-0.1 0.1-0.3 0.2-0.5 0.3l0 0c0 0-0.1 0-0.1 0h0c0 0-0.1 0-0.1 0-0.2-0.1-0.4-0.2-0.5-0.3-0.1-0.1-0.2-0.2-0.2-0.3 0-0.1-0.1-0.1-0.1-0.2v-4c0.1-0.1 0.1-0.3 0.3-0.5 0.1-0.1 0.2-0.2 0.3-0.2 0.1 0 0.2-0.1 0.3-0.1h0c0.1 0 0.2 0 0.3 0.1 0.1 0.1 0.2 0.2 0.3 0.2C50.8 72.9 50.8 73 50.9 73.1z" fill="#ffa500" data-fill-palette-color="accent"></path><path d="M50.9 85.3v4c-0.2 0.1-0.3 0.1-0.5 0.2-0.1 0-0.3 0-0.3 0 0 0 0 0 0 0 0 0 0 0 0 0-0.1 0-0.2 0-0.3 0-0.2 0-0.4-0.1-0.6-0.2v-3.9c0.2-0.1 0.4-0.2 0.5-0.2 0.1 0 0.2-0.1 0.4-0.1l0 0 0 0c0.1 0 0.2 0 0.4 0.1C50.6 85.2 50.8 85.3 50.9 85.3z" fill="#ffa500" data-fill-palette-color="accent"></path><path d="M93 12.3C93 12.3 93 12.3 93 12.3c-1.6 4-7.3 13.8-23 17.9l0-0.1 0-0.1c0-0.2-0.1-0.5-0.2-0.7-0.1-0.5-0.3-1-0.5-1.4-0.3-0.8-0.8-1.5-1.3-2.3-0.8-1.1-1.8-2-3-2.9-0.9-0.7-1.9-1.2-2.9-1.7-1.5-0.7-3-1.1-4.6-1.4-0.6-0.1-1.1-0.1-1.3-0.1l-0.2 0c-0.1 0-0.2 0-0.3 0-0.4 0-0.9 0-1.2 0.1v-2.5c0.9-0.9 1.7-1.9 2.2-3.1 0.4-0.9 1-1.7 1.7-2.3 1.2-1.1 3.4-1.3 4.9-0.7 4.4 2.1 24.7 2 27.9-0.2C92.1 10.3 93.4 11.2 93 12.3z" fill="#ffa500" data-fill-palette-color="accent"></path><path d="M7 12.3C7 12.3 7 12.3 7 12.3c1.6 4 7.3 13.8 23 17.9l0-0.1 0-0.1c0-0.2 0.1-0.5 0.2-0.7 0.1-0.5 0.3-1 0.5-1.4 0.3-0.8 0.8-1.5 1.3-2.3 0.8-1.1 1.8-2 3-2.9 0.9-0.7 1.9-1.2 2.9-1.7 1.5-0.7 3-1.1 4.6-1.4 0.6-0.1 1.1-0.1 1.3-0.1l0.2 0c0.1 0 0.2 0 0.3 0 0.4 0 0.9 0 1.2 0.1v-2.5c-0.9-0.9-1.7-1.9-2.2-3.1-0.4-0.9-1-1.7-1.7-2.3-1.2-1.1-3.4-1.3-4.9-0.7-4.4 2.1-24.7 2-27.9-0.2C7.9 10.3 6.6 11.2 7 12.3z" fill="#ffa500" data-fill-palette-color="accent"></path><path d="M68.5 31.3c-0.2-4.3-3.9-7.4-7.6-9-1.7-0.7-3.8-1.3-5.7-1.1-1.3 0.1-2.3 0.9-2.8 2.2-0.7 1.6-0.7 3.4-0.8 5.2 0 1.5 0.1 3.1 1.3 4.1 0.8 0.7 2 1 3.1 0.6 1.1-0.4 1.8-1.4 1.9-2.5 0.1-0.7 0-1.5 0.4-2.1 0.3-0.5 0.7-0.8 1.3-1 0.9-0.3 1.9-0.3 2.8-0.1 0.5 0.1 0.6 0.3 1 0.7 0.7 0.7 1.3 1.7 1.5 2.7 0.3 1.6-0.6 3-1.8 4-1.9 1.5-4.3 2.2-6.7 2.6-1.9 0.3-3.9 0.5-5.8 0.5-3.8 0-7.7-0.2-11.2-1.8-1.9-0.9-4-2.4-4-4.7 0-1.6 1.1-2.8 2.2-3.8 1.6-0.4 3.9-0.5 4.6 1.4 0.3 0.7 0.1 1.4 0.3 2.2 0.1 0.6 0.4 1.1 0.8 1.5 0.8 0.7 2 0.9 3 0.6 1.2-0.4 2-1.4 2.3-2.7 0.2-0.9 0.1-1.9 0.1-2.8 0-0.9-0.1-1.8-0.3-2.8-0.2-1.3-0.7-2.7-1.9-3.4-1.4-0.8-3.2-0.5-4.6-0.1-2.3 0.5-4.5 1.6-6.3 3-1.8 1.4-3.4 3.5-3.7 5.8-0.3 2.4 0.5 4.8 2.1 6.6 2.3 2.4 5.6 3.6 8.8 4.2-1.5 1.7-2.4 4.1-2.3 6.4 0.1 3.1 1.8 5.8 4.4 7.5-2.2 1.7-3.3 4.2-3.4 6.9-0.1 2.7 1.5 5.4 3.6 7-2 1.5-3.2 3.8-3.3 6.3-0.1 2.6 1.3 5.3 3.4 6.7-1.5 1.5-2.4 3.7-2.2 5.8 0.1 2.3 1.4 4.6 3.4 5.9 0.9 0.6 2 1 3.1 1.2 0.8 0.1 1.7-0.1 2.5-0.3 2.2-0.8 4-2.5 4.8-4.7 1-2.7 0.3-5.8-1.8-7.9 2.1-1.5 3.5-4.1 3.4-6.7 0-2.5-1.3-4.8-3.3-6.3 2.2-1.6 3.6-4.2 3.6-7 0-2.7-1.3-5.3-3.4-6.9 2.6-1.7 4.3-4.4 4.4-7.5 0.1-2.3-0.8-4.7-2.3-6.4C62.3 40.2 68.7 37.2 68.5 31.3zM46 47.9c-0.1-1.8 0.2-3.8 1.6-5.1 0.6-0.5 1.6-1 2.5-1 0.9 0 1.9 0.6 2.5 1.1 1.4 1.3 1.6 3.4 1.5 5.2-0.2 2.3-1.5 4.6-3.9 5.1-0.5 0.1-1.2-0.3-1.7-0.5-0.6-0.3-1-0.8-1.4-1.3C46.4 50.4 46 49.1 46 47.9 46 47.8 46 48.3 46 47.9zM50.5 79.7c-1.8 0.2-3.2-1.3-3.2-3.1 0-1.7-0.3-3.9 1.2-5.1 0.7-0.5 1.5-0.8 2.3-0.5 1.2 0.4 1.8 1.5 2 2.6 0.1 0.8 0 1.7 0 2.6 0 1-0.2 2-0.9 2.7C51.5 79.3 51 79.6 50.5 79.7zM52.7 65c-0.4 1-1.3 1.8-2.4 2-0.8 0.2-1.7-0.4-2.2-1-1.4-1.4-1.2-3.7-1.1-5.5 0.1-1.1 0.4-2.3 1.4-3 0.5-0.4 1.2-0.6 1.9-0.6 0-0.1 1.1 0.3 1.1 0.3 0.5 0.3 1 0.7 1.2 1.2 0.5 0.9 0.5 2 0.5 3C53.1 62.7 53.2 63.9 52.7 65 52.5 65.5 52.8 64.7 52.7 65zM53.8 87.3c0 2-1.6 3.7-3.5 3.9-1.9 0.2-3.6-1.5-3.9-3.3-0.3-2 1.1-4 3.1-4.4 2.1-0.4 4.3 1.5 4.3 3.6C53.8 87.2 53.8 87.3 53.8 87.3z" fill="#ffa500" data-fill-palette-color="accent"></path></g></svg></g><g transform="matrix(1,0,0,1,85.9071999602251,0)"><svg width="313.803515625" viewBox="0 -36.04 161.6 38.29" height="74.326875" data-palette-color="#e5bc41"><path d="M0.49-32.76L0.49-32.76 0-34.96 18.65-36.04Q19.87-35.99 20.7-35.16 21.53-34.33 21.53-33.35L21.53-33.35Q21.53-32.71 21.04-32.23 20.56-31.74 19.58-31.64L19.58-31.64 11.38-32.08Q12.6-14.84 13.18-0.73L13.18-0.73Q12.74 0.73 11.52 0.73L11.52 0.73Q10.64 0.73 9.81 0.02 8.98-0.68 8.79-1.71L8.79-1.71Q8.89-4.35 8.89-9.72L8.89-9.72Q8.89-11.72 8.86-15.72 8.84-19.73 8.84-21.73L8.84-21.73Q8.84-27.54 9.03-32.23L9.03-32.23Q3.52-32.62 0.49-32.76ZM38.77-4.74L38.77-4.74 39.26-2.59Q37.11-1.81 32.88-0.85 28.66 0.1 26.61 0.1L26.61 0.1Q24.51 0.1 22.95-1.29 21.38-2.69 20.6-4.86 19.82-7.03 19.46-9.16 19.09-11.28 19.09-13.33L19.09-13.33Q19.09-25.54 30.12-25.54L30.12-25.54Q32.76-25.54 34.76-23.85 36.77-22.17 36.77-19.48L36.77-19.48Q36.77-18.02 35.96-16.89 35.15-15.77 34.01-15.11 32.86-14.45 31.08-13.92 29.29-13.38 27.93-13.13 26.56-12.89 24.66-12.6 22.75-12.3 22.02-12.16L22.02-12.16Q22.07-10.74 22.19-9.67 22.31-8.59 22.68-7.35 23.04-6.1 23.65-5.3 24.27-4.49 25.34-3.96 26.41-3.42 27.88-3.42L27.88-3.42Q29.64-3.42 32.18-3.74 34.71-4.05 36.69-4.39 38.67-4.74 38.77-4.74ZM22.21-15.19L22.21-15.19Q28.85-17.09 33.1-19.19L33.1-19.19Q32.76-20.8 32.18-21.53 31.59-22.27 30.42-22.27L30.42-22.27Q27.44-22.27 25.02-20.21 22.6-18.16 22.21-15.19ZM44.53-19.53L44.53-19.53 44.72-0.2Q43.99 0.2 42.96 0.2L42.96 0.2Q42.18 0.2 41.21-0.05L41.21-0.05Q41.35-3.13 41.4-12.16 41.45-21.19 41.79-25.54L41.79-25.54 43.99-25.05 44.14-22.31Q46.72-25.05 50.09-25.05L50.09-25.05Q51.8-25.05 52.83-24.8 53.85-24.56 54.8-23.61 55.76-22.66 56.25-21.09 56.73-19.53 57.12-16.63 57.51-13.72 57.69-9.84 57.86-5.96 57.91-0.05L57.91-0.05Q57.61 0.05 56.78 0.05L56.78 0.05Q55.02 0.05 54.05-0.39L54.05-0.39Q53.85-1.17 53.85-2.98L53.85-2.98Q53.85-3.91 53.93-6.47 54-9.03 54-10.45L54-10.45Q54-12.79 53.83-14.55 53.66-16.31 53.19-18.02 52.73-19.73 51.78-20.65 50.83-21.58 49.41-21.58L49.41-21.58Q47.8-21.58 46.89-21.34 45.99-21.09 45.62-20.75 45.26-20.41 44.53-19.53ZM76.9-23.54L76.9-23.54 76.41-21.58Q71.67-23.54 69.04-23.54L69.04-23.54Q66.69-23.54 65.74-22.83 64.79-22.12 64.79-19.82L64.79-19.82Q64.79-17.97 66.13-16.75 67.47-15.53 69.38-14.82 71.28-14.11 73.21-13.31 75.14-12.5 76.48-10.94 77.82-9.38 77.82-7.08L77.82-7.08Q77.82-3.96 75.53-1.61 73.23 0.73 69.57 0.78L69.57 0.78Q66.89 0.78 64.54-0.34 62.2-1.46 60.83-3.17L60.83-3.17 62.25-4.64Q62.83-4.39 63.98-3.86 65.13-3.32 65.62-3.15 66.11-2.98 67.06-2.78 68.01-2.59 69.08-2.59L69.08-2.59Q71.38-2.59 72.84-3.61 74.31-4.64 74.31-6.49L74.31-6.49Q74.31-7.71 73.63-8.57 72.94-9.42 71.82-9.96 70.7-10.5 69.35-10.99 68.01-11.47 66.67-12.08 65.32-12.7 64.2-13.55 63.08-14.4 62.39-15.87 61.71-17.33 61.71-19.34L61.71-19.34Q61.71-22.27 63.3-24.24 64.89-26.22 67.77-26.22L67.77-26.22Q68.89-26.22 70.31-25.88 71.72-25.54 72.55-25.24 73.38-24.95 75.02-24.29 76.65-23.63 76.9-23.54ZM103.16-32.23L103.16-32.23 101.21-29.98Q97.4-32.81 93.69-32.81L93.69-32.81Q91.25-32.81 89.49-31.64 87.73-30.47 86.83-28.81 85.93-27.15 85.41-24.61 84.9-22.07 84.78-20.21 84.66-18.36 84.66-15.87L84.66-15.87Q84.66-13.43 85.56-10.33 86.46-7.23 88.61-4.54 90.76-1.86 93.59-1.86L93.59-1.86Q96.67-1.86 103.02-5.08L103.02-5.08Q103.65-4.15 104.68-2L104.68-2Q98.53 2.25 93.69 2.25L93.69 2.25Q90.57 2.25 87.98 0.34 85.39-1.56 83.9-4.49 82.41-7.42 81.61-10.62 80.8-13.82 80.8-16.7L80.8-16.7Q80.8-19.87 81.29-22.88 81.78-25.88 82.95-28.91 84.12-31.93 86.49-33.79 88.86-35.64 92.13-35.64L92.13-35.64Q94.96-35.64 97.99-34.67 101.02-33.69 103.16-32.23ZM108.92-21.09L108.92-21.09 107.95-23.58Q109.22-24.85 111.17-25.61 113.12-26.37 115.03-26.37L115.03-26.37Q123.28-26.37 123.28-12.11L123.28-12.11Q123.28-10.16 123.06-6.35 122.84-2.54 122.84-0.63L122.84-0.63Q122.45 0.88 121.33 0.88L121.33 0.88Q120.45 0.88 119.71 0 118.98-0.88 118.98-1.95L118.98-1.95Q118.98-2.29 119.03-2.44L119.03-2.44Q116 0.49 112.59 0.49L112.59 0.49Q110 0.49 108.07-1.39 106.14-3.27 106.14-5.96L106.14-5.96Q106.14-10.5 109.68-14.16 113.22-17.82 117.71-17.82L117.71-17.82Q117.91-17.82 118.1-17.8 118.3-17.77 118.57-17.72 118.84-17.68 118.98-17.68L118.98-17.68Q118.59-23.39 114.44-23.39L114.44-23.39Q112-23.39 108.92-21.09ZM119.13-5.81L119.13-5.81Q119.23-9.23 119.23-10.99L119.23-10.99Q119.23-12.45 119.13-15.09L119.13-15.09 118.74-15.09Q115.27-15.04 112.41-12.5 109.56-9.96 109.56-6.35L109.56-6.35Q109.56-4.79 110.51-3.86 111.46-2.93 112.83-2.93L112.83-2.93Q114.98-2.93 119.13-5.81ZM143.34-18.6L143.34-18.6 141.2-18.75Q140.17-21.48 137.73-21.48L137.73-21.48Q136.65-21.48 135.46-21 134.26-20.51 133.48-20 132.7-19.48 131.43-18.51L131.43-18.51Q131.43-17.82 131.41-14.06 131.38-10.3 131.45-5.71 131.53-1.12 131.63-0.78L131.63-0.78Q131.19 0.68 129.92 0.68L129.92 0.68Q129.04 0.68 128.23-0.02 127.43-0.73 127.23-1.76L127.23-1.76Q128.16-17.43 128.89-25.44L128.89-25.44 131.09-24.95 131.24-21.68Q134.65-24.51 137.09-24.51L137.09-24.51Q139.78-24.51 141.61-23.29 143.44-22.07 143.44-19.73L143.44-19.73Q143.44-18.99 143.34-18.6ZM158.72-23.63L158.72-23.63 159.26-21.44Q157.94-21.34 155.21-20.92 152.47-20.51 151.11-20.41L151.11-20.41Q151.35-18.7 151.4-15.92 151.45-13.13 151.52-11.11 151.59-9.08 151.96-7.06 152.33-5.03 153.47-3.96 154.62-2.88 156.57-2.88L156.57-2.88Q158.04-2.88 160.24-3.56L160.24-3.56Q161.16-1.76 161.6-0.93L161.6-0.93Q157.75 0.44 153.79 0.44L153.79 0.44Q152.33 0.44 151.25-0.44 150.18-1.32 149.59-2.64 149.01-3.96 148.64-5.98 148.27-8.01 148.18-9.81 148.08-11.62 148.08-13.96L148.08-13.96Q148.08-15.23 148.1-17.48 148.13-19.73 148.13-20.56L148.13-20.56Q147.64-20.51 145.83-20.48 144.03-20.46 143.73-20.46L143.73-20.46Q143.39-23.73 143.39-23.83L143.39-23.83Q143.73-23.73 144.51-23.73L144.51-23.73Q144.95-23.73 145.93-23.8 146.91-23.88 147.39-23.88L147.39-23.88Q147.59-23.88 147.91-23.85 148.22-23.83 148.32-23.83L148.32-23.83Q148.52-29.2 148.76-32.57L148.76-32.57 150.96-32.03Q151.01-30.86 151.03-29.52 151.06-28.17 151.08-26.54 151.11-24.9 151.11-24.02L151.11-24.02Q152.38-23.93 154.91-23.83 157.45-23.73 158.72-23.63Z" opacity="1" transform="matrix(1,0,0,1,0,0)" fill="#e5bc41" class="wordmark-text-0" data-fill-palette-color="primary"></path></svg></g></svg></g></svg></g></svg></g></svg></g></svg></g><defs></defs></svg><rect width="395.52" height="73.54760443927077" fill="none" stroke="none" visibility="hidden"></rect></g></svg></g></svg>